<svg width="33" height="33" viewBox="0 0 33 33" fill="none" xmlns="http://www.w3.org/2000/svg">
<circle cx="16.4997" cy="16.5001" r="13.5" transform="rotate(10.5198 16.4997 16.5001)" fill="#23272D"/>
<ellipse cx="1.9406" cy="2.81442" rx="1.9406" ry="2.81442" transform="matrix(0.989015 -0.147813 0.0943073 0.995543 8.37695 10.2622)" fill="white" fill-opacity="0.95"/>
<ellipse cx="1.93976" cy="2.81528" rx="1.93976" ry="2.81528" transform="matrix(0.824113 0.566425 -0.523215 0.852201 23.2285 12.9199)" fill="white" fill-opacity="0.85"/>
<ellipse cx="1.93605" cy="2.81911" rx="1.93605" ry="2.81911" transform="matrix(0.998599 0.052909 -0.0919455 0.995764 13.5176 7.1792)" fill="white" fill-opacity="0.9"/>
<ellipse cx="1.93324" cy="2.82198" rx="1.93324" ry="2.82198" transform="matrix(0.963831 0.266513 -0.241453 0.970412 19.5684 7.78955)" fill="white" fill-opacity="0.97"/>
<path d="M13.184 16.0553C15.368 13.8846 19.0828 14.8921 19.8707 17.8688L20.3908 19.8337C21.1787 22.8104 18.4488 25.5238 15.477 24.7178L13.5152 24.1858C10.5433 23.3798 9.55844 19.6589 11.7424 17.4882L13.184 16.0553Z" fill="white"/>
</svg>
